<svg width="40" height="40" viewBox="0 0 40 40" fill="none" xmlns="http://www.w3.org/2000/svg">
<circle cx="20" cy="20" r="20" fill="white"/>
<path d="M9.05701 32L10.744 25.837C9.70301 24.033 9.15601 21.988 9.15701 19.891C9.16001 13.335 14.495 8 21.05 8C24.231 8.001 27.217 9.24 29.463 11.488C31.708 13.736 32.944 16.724 32.943 19.902C32.94 26.459 27.605 31.794 21.05 31.794C19.06 31.793 17.099 31.294 15.362 30.346L9.05701 32V32ZM15.654 28.193C17.33 29.188 18.93 29.784 21.046 29.785C26.494 29.785 30.932 25.351 30.935 19.9C30.937 14.438 26.52 10.01 21.054 10.008C15.602 10.008 11.167 14.442 11.165 19.892C11.164 22.117 11.816 23.783 12.911 25.526L11.912 29.174L15.654 28.193V28.193ZM27.041 22.729C26.967 22.605 26.769 22.531 26.471 22.382C26.174 22.233 24.713 21.514 24.44 21.415C24.168 21.316 23.97 21.266 23.771 21.564C23.573 21.861 23.003 22.531 22.83 22.729C22.657 22.927 22.483 22.952 22.186 22.803C21.889 22.654 20.931 22.341 19.796 21.328C18.913 20.54 18.316 19.567 18.143 19.269C17.97 18.972 18.125 18.811 18.273 18.663C18.407 18.53 18.57 18.316 18.719 18.142C18.87 17.97 18.919 17.846 19.019 17.647C19.118 17.449 19.069 17.275 18.994 17.126C18.919 16.978 18.325 15.515 18.078 14.92C17.836 14.341 17.591 14.419 17.409 14.41L16.839 14.4C16.641 14.4 16.319 14.474 16.047 14.772C15.775 15.07 15.007 15.788 15.007 17.251C15.007 18.714 16.072 20.127 16.22 20.325C16.369 20.523 18.315 23.525 21.296 24.812C22.005 25.118 22.559 25.301 22.99 25.438C23.702 25.664 24.35 25.632 24.862 25.556C25.433 25.471 26.62 24.837 26.868 24.143C27.116 23.448 27.116 22.853 27.041 22.729V22.729Z" fill="#3FDE50"/>
</svg>
