<svg width="40" height="40" viewBox="0 0 40 40" fill="none" xmlns="http://www.w3.org/2000/svg">
<circle cx="20" cy="20" r="20" fill="white"/>
<g clip-path="url(#clip0_93_35)">
<path d="M21.162 26.994C21.771 26.994 22.02 26.588 22.013 26.079C21.982 24.162 22.727 23.13 24.072 24.475C25.56 25.963 25.868 26.994 27.675 26.994H30.875C31.683 26.994 32.001 26.734 32.001 26.326C32.001 25.463 30.58 23.94 29.376 22.822C27.69 21.257 27.611 21.22 29.063 19.336C30.864 16.997 33.22 14 31.136 14H27.155C26.383 14 26.327 14.435 26.052 15.083C25.057 17.43 23.166 20.47 22.448 20.005C21.697 19.52 22.041 17.599 22.098 14.744C22.113 13.99 22.109 13.473 20.957 13.205C20.328 13.06 19.716 13 19.148 13C16.875 13 15.307 13.953 16.198 14.119C17.769 14.412 17.618 17.811 17.252 19.279C16.614 21.835 14.216 17.255 13.217 14.974C12.976 14.426 12.902 14 12.042 14H8.787C8.295 14 8 14.16 8 14.516C8 15.118 10.96 21.236 13.786 24.286C16.542 27.261 19.266 26.994 21.162 26.994Z" fill="#4285F4"/>
</g>
<defs>
<clipPath id="clip0_93_35">
<rect width="24" height="24" fill="white" transform="translate(8 8)"/>
</clipPath>
</defs>
</svg>
